# xmcd
#
# Track frame offsets: 
#        182
#        12102
#        25532
#        39110
#        49322
#        60910
#        71442
#        83520
#        96715
#        112017
#        123917
#        140060
#        149887
#        161647
#        171105
#        183630
#        194572
#        203225
#        217747
#        229160
#
# Disc length: 3236 seconds
#
# Revision: 0
# Processed by: cddbd v1.5.2PL0 Copyright (c) Steve Scherf et al.
# Submitted via: ExactAudioCopy v0.99pb4
#
DISCID=1e0ca214
DTITLE=The Lewis Family - 20 Bluegrass Christmas Favorites
DYEAR=1993
DGENRE=Christmas
TTITLE0=Christmas Time's A Coming
TTITLE1=Beautiful Star Of Bethlehm
TTITLE2=Silent Night
TTITLE3=Silver Bells
TTITLE4=Away In A Manager
TTITLE5=Born In Bethlehem
TTITLE6=Hark The Herald Angles Sing
TTITLE7=Mary's Christmas
TTITLE8=It Came Upon The Midnight Clear
TTITLE9=White Christmas
TTITLE10=Bluegrass Christmas
TTITLE11=Go Tell It On The Mountain
TTITLE12=Old Toy Trains
TTITLE13=C H R I S T M A S
TTITLE14=Dear Little Stranger
TTITLE15=Winter Wonderland
TTITLE16=Joy To The World
TTITLE17=Deck The Halls
TTITLE18=O Little Town Of Bethlehem
TTITLE19=Jingle Bells
EXTD=
EXTT0=
EXTT1=
EXTT2=
EXTT3=
EXTT4=
EXTT5=
EXTT6=
EXTT7=
EXTT8=
EXTT9=
EXTT10=
EXTT11=
EXTT12=
EXTT13=
EXTT14=
EXTT15=
EXTT16=
EXTT17=
EXTT18=
EXTT19=
PLAYORDER=
